<svg id="Capa_1" enable-background="new 0 0 512 512" height="512" viewBox="0 0 512 512" width="512" xmlns="http://www.w3.org/2000/svg"><g><g><path d="m312.207 453.404v21.026c0 16.608-13.852 30.071-30.94 30.071h-47.441c-17.087 0-30.94-13.463-30.94-30.071v-21.026z" fill="#5f6c75"/><path d="m312.207 453.404v21.026c0 16.608-13.852 30.071-30.94 30.071h-47.441c-17.087 0-30.94-13.463-30.94-30.071v-21.026z" fill="#c9d0da"/><path d="m312.21 453.4v21.03c0 1.14-.07 2.26-.19 3.37-3.89 1.05-7.99 1.61-12.22 1.61h-84.51c-4.22 0-8.32-.56-12.21-1.61-.12-1.11-.19-2.23-.19-3.37v-21.03z" fill="#4e5a61"/><path d="m215.89 453.4h-13v21.03c0 .557.018 1.109.049 1.658.007.127.021.253.03.38.027.387.055.774.097 1.157.006.058.008.117.015.175.003.001.006.001.009.002 1.725 15.021 14.825 26.698 30.741 26.698h13c-12.69 0-23.588-7.423-28.36-18.045-1.485-3.305.947-7.045 4.571-7.045h76.758c4.23 0 8.33-.56 12.22-1.61.12-1.11.19-2.23.19-3.37v-21.03z" fill="#b9c1ca"/><path d="m183.292 404.265v-17.121c0-22.354-15.422-37.424-31.328-53.571-25.394-25.778-41.031-60.961-41.031-99.748 0-79.048 64.949-143.129 145.067-143.129s145.067 64.081 145.067 143.129c0 38.787-15.637 73.971-41.031 99.748-15.906 16.147-28.234 30.499-28.234 52.853v17.585z" fill="#f7f06d"/><path d="m176.96 333.57c15.91 16.15 31.33 31.22 31.33 53.57v17.08l-25 .04v-17.12c0-22.35-15.42-37.42-31.33-53.57-25.39-25.78-41.03-60.96-41.03-99.75 0-79.04 64.95-143.12 145.07-143.12 4.21 0 8.38.18 12.5.53-74.27 6.25-132.57 67.7-132.57 142.59 0 38.79 15.64 73.97 41.03 99.75z" fill="#ed5"/><g><g><path d="m256 65.683c-4.143 0-7.5-3.358-7.5-7.5v-50.683c0-4.142 3.357-7.5 7.5-7.5s7.5 3.358 7.5 7.5v50.683c0 4.142-3.357 7.5-7.5 7.5z" fill="#f7f06d"/></g><g><path d="m117.157 121.578c-1.884 0-3.769-.705-5.227-2.122l-36.873-35.838c-2.97-2.887-3.038-7.635-.15-10.605 2.886-2.97 7.635-3.038 10.605-.151l36.874 35.838c2.97 2.887 3.038 7.635.15 10.605-1.47 1.512-3.424 2.273-5.379 2.273z" fill="#f7f06d"/></g><g><path d="m59.647 256.521h-52.147c-4.143 0-7.5-3.358-7.5-7.5s3.357-7.5 7.5-7.5h52.147c4.143 0 7.5 3.358 7.5 7.5s-3.357 7.5-7.5 7.5z" fill="#f7f06d"/></g><g><path d="m80.285 427.301c-1.956 0-3.909-.76-5.379-2.272-2.888-2.971-2.819-7.719.15-10.605l36.874-35.838c2.972-2.889 7.721-2.819 10.605.15 2.888 2.971 2.819 7.719-.15 10.605l-36.874 35.838c-1.457 1.417-3.342 2.122-5.226 2.122z" fill="#f7f06d"/></g><g><path d="m431.715 427.301c-1.884 0-3.769-.705-5.227-2.122l-36.874-35.838c-2.97-2.887-3.038-7.635-.15-10.605 2.886-2.97 7.634-3.038 10.605-.15l36.874 35.838c2.97 2.887 3.038 7.635.15 10.605-1.469 1.512-3.423 2.272-5.378 2.272z" fill="#f7f06d"/></g><g><path d="m504.5 256.521h-52.147c-4.143 0-7.5-3.358-7.5-7.5s3.357-7.5 7.5-7.5h52.147c4.143 0 7.5 3.358 7.5 7.5s-3.357 7.5-7.5 7.5z" fill="#f7f06d"/></g><g><path d="m394.843 121.578c-1.956 0-3.909-.76-5.379-2.273-2.888-2.97-2.819-7.718.15-10.605l36.874-35.838c2.972-2.888 7.721-2.819 10.605.151 2.888 2.97 2.819 7.718-.15 10.605l-36.874 35.838c-1.458 1.417-3.342 2.122-5.226 2.122z" fill="#f7f06d"/></g></g><path d="m302.166 224.36h-1.576c-16.496 0-29.916 13.42-29.916 29.917v15.189h-26.253v-15.189c0-16.496-13.421-29.917-29.917-29.917h-1.576c-16.496 0-29.917 13.42-29.917 29.917v.272c0 16.496 13.421 29.917 29.917 29.917h16.493v99.752c0 4.143 3.357 7.5 7.5 7.5s7.5-3.357 7.5-7.5v-99.752h26.253v99.752c0 4.143 3.357 7.5 7.5 7.5s7.5-3.357 7.5-7.5v-99.752h16.492c16.496 0 29.917-13.421 29.917-29.917v-.272c0-16.497-13.421-29.917-29.917-29.917zm-104.155 30.189v-.272c0-8.225 6.691-14.917 14.917-14.917h1.576c8.226 0 14.917 6.691 14.917 14.917v15.189h-16.493c-8.226 0-14.917-6.692-14.917-14.917zm119.072 0c0 8.226-6.691 14.917-14.917 14.917h-16.492v-15.189c0-8.225 6.691-14.917 14.916-14.917h1.576c8.226 0 14.917 6.691 14.917 14.917z" fill="#ead246"/><path d="m331.84 384.22-.03 32.59-.01 15v.6c0 17.67-14.32 32-32 32h-84.51c-17.67 0-32-14.33-32-32v-.6l-.03-15-.06-32.59z" fill="#c9d0da"/><g fill="#b9c1ca"><path d="m240.29 464.41h-25c-17.67 0-32-14.33-32-32v-.6l-.03-15-.06-32.59h25l.06 32.59.03 15v.6c0 17.67 14.33 32 32 32z"/><path d="m331.81 416.81-.01 15h-26.3c-4.14 0-7.5-3.36-7.5-7.5s3.36-7.5 7.5-7.5z"/><path d="m276.91 424.31c0 4.14-3.36 7.5-7.5 7.5h-86.12l-.03-15h86.15c4.14 0 7.5 3.36 7.5 7.5z"/></g></g><g><path d="m256 65.683c4.143 0 7.5-3.358 7.5-7.5v-50.683c0-4.142-3.357-7.5-7.5-7.5s-7.5 3.358-7.5 7.5v50.683c0 4.142 3.357 7.5 7.5 7.5z"/><path d="m111.931 119.456c2.968 2.885 7.717 2.821 10.605-.151 2.888-2.97 2.819-7.718-.15-10.605l-36.874-35.839c-2.971-2.887-7.72-2.819-10.605.151-2.888 2.97-2.819 7.718.15 10.605z"/><path d="m59.647 241.521h-52.147c-4.143 0-7.5 3.358-7.5 7.5s3.357 7.5 7.5 7.5h52.147c4.143 0 7.5-3.358 7.5-7.5s-3.357-7.5-7.5-7.5z"/><path d="m111.931 378.585-36.874 35.838c-2.97 2.887-3.038 7.635-.15 10.605 2.888 2.972 7.638 3.036 10.605.15l36.874-35.838c2.97-2.887 3.038-7.635.15-10.605-2.885-2.969-7.634-3.039-10.605-.15z"/><path d="m400.069 378.585c-2.972-2.888-7.72-2.819-10.605.15-2.888 2.971-2.819 7.719.15 10.605l36.874 35.838c2.968 2.886 7.717 2.822 10.605-.15 2.888-2.971 2.819-7.719-.15-10.605z"/><path d="m504.5 241.521h-52.147c-4.143 0-7.5 3.358-7.5 7.5s3.357 7.5 7.5 7.5h52.147c4.143 0 7.5-3.358 7.5-7.5s-3.357-7.5-7.5-7.5z"/><path d="m426.488 72.861-36.874 35.838c-2.97 2.887-3.038 7.635-.15 10.605 2.888 2.973 7.637 3.036 10.605.151l36.874-35.838c2.97-2.887 3.038-7.635.15-10.605-2.884-2.97-7.633-3.038-10.605-.151z"/><path d="m373.301 137.501c-2.671-3.167-7.402-3.57-10.568-.898-3.167 2.67-3.568 7.402-.898 10.568 20.464 24.266 31.733 55.039 31.733 86.653 0 35.482-13.806 69.037-38.874 94.484-14.387 14.606-26.623 28.576-29.661 48.409h-39.358v-92.252h16.492c16.496 0 29.917-13.421 29.917-29.917v-.272c0-16.496-13.421-29.917-29.917-29.917h-1.576c-16.496 0-29.916 13.42-29.916 29.917v15.189h-26.253v-15.189c0-16.496-13.421-29.917-29.917-29.917h-1.576c-16.496 0-29.917 13.42-29.917 29.917v.272c0 16.496 13.421 29.917 29.917 29.917h16.493v92.252h-39.643c-3.797-19.312-17.734-33.461-31.286-47.206-6.719-6.693-12.803-14.077-17.988-21.975-2.278-3.462-6.93-4.421-10.388-2.144-3.461 2.277-4.42 6.928-2.144 10.388 5.726 8.717 12.428 16.873 19.839 24.262 15.014 15.228 27.979 28.379 27.98 47.101v45.263c0 14.524 7.885 27.234 19.595 34.096v7.927c0 20.717 17.244 37.57 38.439 37.57h47.441c21.195 0 38.439-16.854 38.439-37.57v-7.927c11.709-6.862 19.595-19.572 19.595-34.096v-45.98c.001-19.604 10.809-32.09 26.077-47.59 27.851-28.271 43.188-65.565 43.188-105.012.001-35.148-12.523-69.356-35.265-96.323zm-87.627 116.775c0-8.225 6.691-14.917 14.916-14.917h1.576c8.226 0 14.917 6.691 14.917 14.917v.272c0 8.226-6.691 14.917-14.917 14.917h-16.492zm-87.663.273v-.272c0-8.225 6.691-14.917 14.917-14.917h1.576c8.226 0 14.917 6.691 14.917 14.917v15.189h-16.493c-8.226 0-14.917-6.692-14.917-14.917zm46.41 29.917h26.253v92.252h-26.253zm60.286 189.964c0 12.445-10.515 22.57-23.439 22.57h-47.441c-12.925 0-23.439-10.125-23.439-22.57v-2.839h94.32v2.839zm-4.905-17.524h-84.51c-13.51 0-24.5-10.99-24.5-24.5v-.595h78.615c4.143 0 7.5-3.357 7.5-7.5s-3.357-7.5-7.5-7.5h-78.615v-12.547-12.547h133.51v12.293 12.801h-18.799c-4.143 0-7.5 3.357-7.5 7.5s3.357 7.5 7.5 7.5h18.799v.595c0 13.51-10.99 24.5-24.5 24.5z"/><path d="m118.433 233.824c0-74.786 61.713-135.629 137.567-135.629 29.375 0 57.398 8.998 81.041 26.021 3.362 2.419 8.049 1.658 10.47-1.704 2.42-3.361 1.657-8.048-1.704-10.469-26.212-18.872-57.267-28.848-89.807-28.848-84.126 0-152.567 67.572-152.567 150.629 0 16.749 2.768 33.204 8.226 48.909 1.352 3.95 5.738 5.977 9.546 4.622 3.913-1.359 5.982-5.634 4.622-9.546-4.907-14.118-7.394-28.916-7.394-43.985z"/></g></g></svg>