<?xml version="1.0" encoding="iso-8859-1"?>
<!-- Generator: Adobe Illustrator 19.0.0, SVG Export Plug-In . SVG Version: 6.00 Build 0)  -->
<svg version="1.1" id="Capa_1" xmlns="http://www.w3.org/2000/svg" xmlns:xlink="http://www.w3.org/1999/xlink" x="0px" y="0px"
	 viewBox="0 0 511.999 511.999" style="enable-background:new 0 0 511.999 511.999;" xml:space="preserve">
<path style="fill:#FFF573;" d="M503.899,260.566c0,137.98-111.649,251.433-251.433,251.433
	c-139.421,0-251.433-113.11-251.433-251.433c0-138.863,112.57-251.433,251.433-251.433
	C391.588,9.133,503.899,121.941,503.899,260.566z"/>
<path style="fill:#FADF6C;" d="M421.223,446.966c-14.062,12.769-29.583,23.954-46.305,33.298
	c-33.629,1.759-72.619,2.773-114.174,2.773c-49.388,0-95.145-1.428-132.603-3.86c-15.366-8.754-29.697-19.081-42.807-30.753
	c42.135-4.553,105.079-7.44,175.41-7.44C323.181,440.985,379.802,443.261,421.223,446.966z"/>
<rect x="105.734" y="210.541" transform="matrix(-0.7071 0.7071 -0.7071 -0.7071 641.5963 195.5457)" style="fill:#C8BEB9;" width="349.131" height="40.222"/>
<polygon style="fill:#AAAAAA;" points="417.974,121.434 171.099,368.309 160.68,357.892 407.546,111.016 "/>
<path style="fill:#B4AAAA;" d="M363.013,189.925L239.581,313.357c-4.809,4.81-12.608,4.81-17.419,0L197.606,288.8
	c-4.809-4.81-4.809-12.608,0-17.419L321.038,147.95c4.81-4.81,12.608-4.81,17.419,0l24.557,24.557
	C367.824,177.316,367.824,185.115,363.013,189.925z"/>
<path style="fill:#8C8787;" d="M501.642,114.055l-37.671,37.671c-10.541,10.541-27.631,10.541-38.172,0l-66.563-66.563
	c-10.541-10.541-10.541-27.631,0-38.172L396.907,9.32c10.541-10.541,27.631-10.541,38.172,0l66.563,66.563
	C512.183,86.425,512.183,103.515,501.642,114.055z"/>
<g>
	<path style="fill:#736E6E;" d="M501.645,114.054l-37.678,37.668c-10.536,10.545-27.629,10.545-38.165,0l-19.077-19.077
		c34.805-12.944,63.84-37.739,82.209-69.477l12.711,12.711C512.181,86.425,512.181,103.519,501.645,114.054z"/>
	<path style="fill:#736E6E;" d="M201.384,414.315l-37.671,37.671c-10.541,10.541-27.631,10.541-38.172,0l-66.563-66.564
		c-10.541-10.541-10.541-27.631,0-38.172l37.671-37.671c10.541-10.541,27.631-10.541,38.172,0l66.563,66.563
		C211.925,386.684,211.925,403.774,201.384,414.315z"/>
</g>
<g>
	<path style="fill:#5A5555;" d="M201.382,414.318l-37.668,37.668c-10.545,10.545-27.629,10.545-38.175,0l-40.603-40.603
		c13.824,4.149,28.479,6.376,43.66,6.376c29.653,0,57.313-8.501,80.68-23.217C209.468,401.678,206.826,408.874,201.382,414.318z"/>
	<path style="fill:#5A5555;" d="M248.945,407.886l-47.565,47.565c-7.808,7.808-20.469,7.808-28.278,0L55.512,337.861
		c-7.808-7.808-7.808-20.469,0-28.278l47.565-47.565c7.808-7.808,20.469-7.808,28.278,0l117.59,117.59
		C256.754,387.417,256.754,400.077,248.945,407.886z"/>
	<path style="fill:#5A5555;" d="M505.108,151.723l-47.565,47.565c-7.808,7.808-20.469,7.808-28.278,0l-117.59-117.59
		c-7.808-7.808-7.808-20.469,0-28.278l47.564-47.565c7.808-7.808,20.469-7.808,28.278,0l117.59,117.59
		C512.916,131.255,512.916,143.915,505.108,151.723z"/>
</g>
<path style="fill:#9B9B9B;" d="M363.012,189.921L239.584,313.358c-4.809,4.81-12.613,4.81-17.422,0l-8.835-8.835
	c-1.949-1.949-1.351-5.228,1.15-6.386c25.591-11.86,52.954-31.375,78.006-57.08c23.585-24.206,41.618-50.314,52.991-74.886
	c1.721-3.717,6.599-4.598,9.495-1.702l8.041,8.041C367.821,177.319,367.821,185.112,363.012,189.921z"/>
<path style="fill:#464141;" d="M505.107,151.722l-47.566,47.566c-7.803,7.813-20.463,7.813-28.277,0l-36.626-36.626
	c36.535-9.908,67.837-32.527,88.878-62.807l23.591,23.591C512.92,131.259,512.92,143.919,505.107,151.722z"/>
<path style="fill:#464646;" d="M248.948,407.881l-47.566,47.566c-7.813,7.813-20.473,7.813-28.277,0l-57.251-57.252
	c7.105,1.022,14.371,1.548,21.759,1.548c36.738,0,70.428-13.066,96.681-34.794l14.654,14.654
	C256.751,387.418,256.751,400.078,248.948,407.881z"/>
<g>
</g>
<g>
</g>
<g>
</g>
<g>
</g>
<g>
</g>
<g>
</g>
<g>
</g>
<g>
</g>
<g>
</g>
<g>
</g>
<g>
</g>
<g>
</g>
<g>
</g>
<g>
</g>
<g>
</g>
</svg>
