<svg id="Layer_1_1_" enable-background="new 0 0 64 64" height="512" viewBox="0 0 64 64" width="512" xmlns="http://www.w3.org/2000/svg"><path d="m54 43c2.76141 0 5-2.23859 5-5s-2.23859-5-5-5c-.0351 0-.06744.00958-.10236.01031.06696-.32635.10236-.66418.10236-1.01031 0-2.76141-2.23859-5-5-5-1.13208 0-2.16437.39044-3.0025 1.02472.00006-.00842.0025-.01624.0025-.02472 0-2.76141-2.23859-5-5-5-1.69269 0-3.18274.84619-4.08734 2.1333-.41187-2.3465-2.44812-4.1333-4.91266-4.1333s-4.50079 1.7868-4.91266 4.1333c-.9046-1.28711-2.39465-2.1333-4.08734-2.1333-2.76141 0-5 2.23859-5 5 0 .00848.00244.0163.0025.02472-.83813-.63428-1.87042-1.02472-3.0025-1.02472-2.76141 0-5 2.23859-5 5 0 .34613.0354.68396.10236 1.01031-.03492-.00073-.06726-.01031-.10236-.01031-2.76141 0-5 2.23859-5 5s2.23859 5 5 5z" fill="#ffb554"/><g fill="#ea5b58"><path d="m3 5h4v10h-4z"/><path d="m7 3h5v14h-5z"/><path d="m57 5h4v10h-4z" transform="matrix(-1 0 0 -1 118 20)"/><path d="m52 3h5v14h-5z" transform="matrix(-1 0 0 -1 109 20)"/></g><path d="m12 8h40v4h-40z" fill="#5dc4dd"/><path d="m46 61h-12v-6h6c3.31 0 6 2.69 6 6z" fill="#ea5b58"/><path d="m30 55v6h-12c0-3.31 2.69-6 6-6z" fill="#ea5b58"/><path d="m34 43h5v12h-5z" fill="#5dc4dd"/><path d="m25 43h5v12h-5z" fill="#5dc4dd"/><path d="m61 4h-3v-1c0-.55273-.44727-1-1-1h-5c-.55273 0-1 .44727-1 1v4h-38v-4c0-.55273-.44727-1-1-1h-5c-.55273 0-1 .44727-1 1v1h-3c-.55273 0-1 .44727-1 1v10c0 .55273.44727 1 1 1h3v1c0 .55273.44727 1 1 1h5c.55273 0 1-.44727 1-1v-4h2v13c-3.30859 0-6 2.69141-6 6 0 .02734 0 .05566.00098.08301-2.83496.47754-5.00098 2.94922-5.00098 5.91699 0 3.30859 2.69141 6 6 6h14v10c-3.85938 0-7 3.14062-7 7 0 .55273.44727 1 1 1h12c.55273 0 1-.44727 1-1v-17h2v17c0 .55273.44727 1 1 1h12c.55273 0 1-.44727 1-1 0-3.85938-3.14062-7-7-7v-10h14c3.30859 0 6-2.69141 6-6 0-2.96777-2.16602-5.43945-5.00098-5.91699.00098-.02735.00098-.05567.00098-.08301 0-3.30859-2.69141-6-6-6v-13h2v4c0 .55273.44727 1 1 1h5c.55273 0 1-.44727 1-1v-1h3c.55273 0 1-.44727 1-1v-10c0-.55273-.44727-1-1-1zm-57 10v-8h2v8zm7 2h-3v-1-10-1h3v4 4zm8.10059 44c.46484-2.2793 2.48438-4 4.89941-4h1 4v4zm9.89941-6h-3v-10h3zm15.89941 6h-9.89941v-4h4 1c2.41504 0 4.43457 1.7207 4.89941 4zm-6.89941-6h-3v-10h3zm15-22c0 .27246-.02734.54492-.08203.80859-.06152.2998.0166.61035.21289.84473.19629.2334.49219.35742.79395.35742.04297-.00195.08398-.00488.12598-.01074 2.18261.02832 3.94921 1.81152 3.94921 4 0 2.20605-1.79395 4-4 4h-15-5-4-5-15c-2.20605 0-4-1.79395-4-4 0-2.18945 1.76855-3.97461 3.95215-4 .04297.00488.09473.00977.12305.01074.30566.00293.59766-.12402.79395-.35742.19629-.23438.27441-.54492.21289-.84473-.0547-.26367-.08204-.53613-.08204-.80859 0-2.20605 1.79395-4 4-4 .8584 0 1.68848.28418 2.40039.82227.32617.24609.76953.26562 1.11914.05371.31836-.19238.50098-.54785.48047-.91504.02148-2.1875 1.80762-3.96094 4-3.96094 1.2959 0 2.51758.63867 3.26855 1.70801.23242.33008.64355.49121 1.03613.40039.39453-.08789.69727-.4043.76758-.80273.33594-1.91505 1.98829-3.30567 3.92774-3.30567s3.5918 1.39062 3.92773 3.30566c.07031.39844.37305.71484.76758.80273.39258.08984.80371-.07031 1.03613-.40039.75098-1.06933 1.97266-1.708 3.26856-1.708 2.20605 0 4 1.79395 4.00488 3.90039-.0498.39844.14355.78906.49219.99023.34766.20117.7832.17285 1.10254-.06836.71191-.53808 1.54199-.82226 2.40039-.82226 2.20605 0 4 1.79395 4 4zm-6-5.63129c-.06818.02478-.14062.03461-.20801.06195-.6914-2.5498-3.02637-4.43066-5.79199-4.43066-1.3418 0-2.62988.4541-3.66895 1.26172-1.00195-1.96192-3.03222-3.26172-5.33105-3.26172s-4.3291 1.2998-5.33105 3.26172c-1.03907-.80762-2.32715-1.26172-3.66895-1.26172-2.76562 0-5.10059 1.88086-5.79199 4.43066-.06739-.02734-.13983-.03717-.20801-.06195v-13.36871h30zm-34-15.36871v-2h38v2zm43 5h-3v-4-4-4h3v1 10zm4-2h-2v-8h2z" fill="#1e191a"/><circle cx="27.5" cy="31.5" fill="#1e191a" r="1.5"/><circle cx="36.5" cy="31.5" fill="#1e191a" r="1.5"/><path d="m27.69434 36.28027-1.38867 1.43945c1.57031 1.51466 3.63183 2.27247 5.69433 2.27247s4.12402-.75781 5.69434-2.27246l-1.38867-1.43945c-2.37501 2.29101-6.23633 2.29101-8.61133-.00001z" fill="#1e191a"/></svg>