<svg id="Layer_1" enable-background="new 0 0 511.517 511.517" height="512" viewBox="0 0 511.517 511.517" width="512" xmlns="http://www.w3.org/2000/svg"><g><g><path d="m494.595 238.837c0 56.603-19.69 108.607-52.595 149.537-43.775 54.451-101.28 66.569-176.583 66.569-124.891 0-237.051-73.129-247.6-195.286-.592-6.861-.895-13.805-.895-20.819 0-131.907 106.931-238.838 238.836-238.838s238.837 106.931 238.837 238.837z" fill="#a0ebff"/></g><g><path d="m431.572 375.34c-.15.068-.299.137-.449.205-5.706 2.594-12.19-1.541-12.19-7.809v-6.014c0-4.568-3.269-8.424-7.662-9.237-1.428-.264-2.419-1.583-2.419-3.035v-16.663c0-1.66 1.346-3.005 3.005-3.005 1.66 0 3.005-1.345 3.005-3.005v-26.201c0-5.541-4.492-10.032-10.032-10.032h-21.772c-4.544 0-8.901-1.814-12.102-5.039l-.05-.051v.044c-4.865-4.901-17.842-14.043-26.601-19.863-4.862-3.231-8.649-7.855-10.751-13.302-.033-.086-.067-.173-.101-.259-3.824-9.77-2.101-20.882 4.698-28.872 14.128-16.603 17.278-35.2 17.874-47.239.304-6.139 3.534-11.873 8.894-14.882 5.499-3.086 9.215-8.973 9.215-15.728v-9.645c0-6.755-3.716-12.642-9.215-15.728-5.552-3.117-8.809-9.167-8.809-15.535v-49.692c0-19.12-15.5-34.62-34.62-34.62h-85.267c-19.12 0-34.62 15.5-34.62 34.62v62.933c-9.954 0-18.024 8.07-18.024 18.024v9.645c0 9.954 8.07 18.024 18.024 18.024.429 1.97-2.007 19.477 5.778 39.029 9.602 24.114 1.142 51.656-20.404 66.128-.442.297-.883.593-1.324.89-29.135 19.589-69.166 7.372-81.852-25.363-.345-.89-.685-1.791-1.021-2.702-17.683-47.992-89.302-32.666-84.903 18.291 10.701 123.964 114.509 218.022 237.882 218.022 74.184 0 141.729-33.96 186.228-89.311 5.472-7.045-2.23-16.764-10.415-13.023z" fill="#75cef9"/></g><g><g><g><path d="m395.209 378.142v21.943c0 5.194-4.21 9.404-9.404 9.404s-9.404-4.21-9.404-9.404v-21.943c0-5.194 4.21-9.404 9.404-9.404s9.404 4.21 9.404 9.404z" fill="#ffbe82"/></g></g><g><g><path d="m135.116 383.315v21.943c0 5.194-4.21 9.404-9.404 9.404s-9.404-4.21-9.404-9.404v-21.943c0-5.194 4.21-9.404 9.404-9.404s9.404 4.21 9.404 9.404z" fill="#ffbe82"/></g></g><g><g><path d="m347.181 301.874v.045c-7.161-7.215-14.786-13.355-23.718-18.907 0-.007 0-.014.001-.02-.1-.062-2.291-1.39-2.394-1.451v.019c-19.325-11.432-41.858-18.015-65.938-18.015-13.929 0-27.334 2.216-39.907 6.284-1.95 2.901-28.392 31.513-33.353 36.819v141.966c2.371.883 4.614 1.678 6.146 2.198v.025c1.036.351 2.078.689 3.121 1.024l122.635 17.702c2.452-.787 7.217-19.314 9.628-20.191v-.027c8.184-2.979 16.121-6.474 23.781-10.433v.016c-.001 0 .041-.024 1.124-.593v-.008c13.077-6.859 25.332-15.079 36.551-24.504-1.476-9.072 9.186-64.762-37.677-111.949z" fill="#f5415f"/></g><g><path d="m243.885 457.768v-.025c-.367-.125-1.094-.43-2.121-.89-47.983-21.495-67.501-79.999-41.162-125.503 9.399-16.238 23.17-31.374 43.283-42.158v-.025c.118-.072 1.832-1.084 1.937-1.145v.015c15.806-9.205 33.73-15.164 52.866-16.971-13.613-4.861-28.271-7.521-43.556-7.521-23.763 0-46.023 6.406-65.178 17.561v-.015c-.105.061-1.819 1.073-1.937 1.145v.025c-5.464 3.311-10.666 7.015-15.566 11.072-32.84 27.192-49.716 69.156-46.029 111.633l.985 11.343c14.158 11.443 27.876 21.027 44.785 28.392-.039-.045-.076-.092-.115-.137 3.519 1.814 12.036 4.923 15.94 6.248v.025c6.305 2.139-6.939-.823 125.755 18.725.294-.094.622-.449.974-.992-73.623-11.019-64.577-8.67-70.861-10.802z" fill="#cd2846"/></g><g><g><path d="m255.132 240.659c-32.386 0-58.64 26.254-58.64 58.64 0 21.556 11.639 40.384 28.968 50.574l30.014-30.014 29.764 29.764c17.091-10.247 28.534-28.946 28.534-50.324 0-32.385-26.254-58.64-58.64-58.64z" fill="#cd2846"/></g></g><g><g><path d="m255.132 231.257c-32.386 0-58.64 26.254-58.64 58.64 0 21.556 11.639 40.384 28.968 50.574l30.014-30.014 29.764 29.764c17.091-10.247 28.534-28.946 28.534-50.324 0-32.385-26.254-58.64-58.64-58.64z" fill="#fff"/></g></g><g><g><g><g><path d="m255.512 309.288c-14.954 0-27.077-12.123-27.077-27.077v-60.649h54.154v60.649c0 14.954-12.122 27.077-27.077 27.077z" fill="#ff965a"/></g></g></g></g><g><g><g><g><path d="m328.967 126.559c0-24.71-15.852-47.306-40.563-47.306h-65.784c-9.093 0-17.201 3.068-23.823 8.167v131.758c0 19.224 11.962 36.455 30.012 43.07 8.326 3.051 17.319 4.716 26.702 4.716 42.456 0 76.873-34.417 76.873-76.873v-24.269z" fill="#ffbe82"/></g></g></g></g><g><path d="m188.384 82.766c-6.552 7.782-10.506 32.824-10.506 43.793v62.771c0 33.313 20.956 61.635 50.287 72.681 5.476 2.062 9.54-5.257 4.958-8.896-17.906-14.221-29.389-36.18-29.389-60.822v-55.119c0-14.614 12.458-26.042 27.032-24.96 7.785.578 16.089.891 24.715.891 16.497 0 31.829-1.14 44.595-3.095 14.923-2.286 25.924-15.147 25.924-30.244z" fill="#ff965a"/></g><g><g><g><g><path d="m332.386 179.798v-45.693c9.954 0 18.024 8.07 18.024 18.024v9.645c0 9.954-8.07 18.024-18.024 18.024z" fill="#ff965a"/></g></g></g></g><g><g><g><g><path d="m177.878 179.798v-45.693c-9.954 0-18.024 8.07-18.024 18.024v9.645c0 9.954 8.07 18.024 18.024 18.024z" fill="#ff965a"/></g></g></g></g><g><g><g><g><path d="m228.7 173.188c-3.536 0-6.403-2.867-6.403-6.403v-17.511c0-3.536 2.867-6.403 6.403-6.403s6.403 2.867 6.403 6.403v17.511c0 3.536-2.867 6.403-6.403 6.403z" fill="#ff965a"/></g></g></g></g><g><g><g><g><path d="m280.989 173.188c-3.536 0-6.403-2.867-6.403-6.403v-17.511c0-3.536 2.867-6.403 6.403-6.403s6.403 2.867 6.403 6.403v17.511c-.001 3.536-2.868 6.403-6.403 6.403z" fill="#ff965a"/></g></g></g></g><g><g><g><g><path d="m228.7 168.06c-3.536 0-6.403-2.867-6.403-6.403v-17.511c0-3.536 2.867-6.403 6.403-6.403s6.403 2.867 6.403 6.403v17.511c0 3.536-2.867 6.403-6.403 6.403z" fill="#373c41"/></g></g></g></g><g><g><g><g><path d="m280.989 168.06c-3.536 0-6.403-2.867-6.403-6.403v-17.511c0-3.536 2.867-6.403 6.403-6.403s6.403 2.867 6.403 6.403v17.511c-.001 3.536-2.868 6.403-6.403 6.403z" fill="#373c41"/></g></g></g></g><g><g><g><g><g><path d="m237.136 134.542h-18.672c-3.536 0-6.403-2.867-6.403-6.403 0-3.536 2.867-6.403 6.403-6.403h18.672c3.536 0 6.403 2.867 6.403 6.403-.001 3.537-2.867 6.403-6.403 6.403z" fill="#783c28"/></g></g></g></g></g><g><g><g><g><g><path d="m290.491 134.542h-18.672c-3.536 0-6.403-2.867-6.403-6.403 0-3.536 2.867-6.403 6.403-6.403h18.672c3.536 0 6.403 2.867 6.403 6.403 0 3.537-2.867 6.403-6.403 6.403z" fill="#783c28"/></g></g></g></g></g><g><g><path d="m279.087 203.481h-47.15c-1.956 0-3.52 1.708-3.259 3.647.499 3.709 1.75 7.181 3.593 10.256l35.157 10.419c7.94-3.898 13.692-11.568 14.918-20.674.261-1.941-1.302-3.648-3.259-3.648z" fill="#cd2846"/></g></g><g><g><g><g><path d="m245.138 177.149c-1.592 6.356 1.301 13.279 6.833 15.366 1.113.42 2.304.647 3.541.647 1.238 0 2.428-.227 3.542-.647 5.532-2.087 8.424-9.01 6.833-15.366l-5.277-21.07c-1.328-5.305-8.867-5.305-10.195 0z" fill="#ff965a"/></g></g></g></g><g><g><path d="m294.936 89.828c2.366-4.299 7.748-5.94 12.186-3.844.066.031.132.062.198.094 4.814 2.304 8.662 6 11.227 10.457h5.392c4.665 0 8.446-3.781 8.446-8.446v-16.916c0-19.12-15.5-34.62-34.62-34.62h-85.267c-5.746.008-10.447 4.716-10.447 10.462v39.789c.577-.311 1.159-.617 1.775-.889 7.514-3.317 15.323 4.024 12.828 11.85-.013.039-.025.079-.037.118-1.736 5.512 2.393 11.122 8.172 11.122h37.731c27.857-.001 30.843-16.318 32.416-19.177z" fill="#783c28"/></g></g><g><g><g><path d="m203.52 71.173c0-19.12 15.5-34.62 34.62-34.62h-25.642c-19.12 0-34.62 15.5-34.62 34.62v55.793.002 38.855c5.687 0 10.297-4.61 10.297-10.297v-45.466c0-10.042 5.651-19.298 14.682-23.691.221-.108.443-.213.663-.315z" fill="#5a2d19"/></g></g><g><g><path d="m320.48 90.005c-.915 1.641-1.965 3.195-3.111 4.67 3.018 4.363 4.719 9.633 4.719 15.137v45.714c0 5.687 4.61 10.297 10.297 10.297v-39.263-40.732c-4.402-1.846-9.559-.031-11.905 4.177z" fill="#5a2d19"/></g></g><g><g><path d="m250.431 109.004c-5.765 0-9.911-5.593-8.183-11.093.031-.097.062-.195.093-.292 2.552-7.891-5.638-15.071-13.159-11.576-.228.106-.456.214-.684.325-5.382 2.618-9.55 6.971-12.051 12.18-1.231 5.286 2.799 10.454 8.341 10.454h37.729.001-12.087z" fill="#a55a3c"/></g></g></g><g><g><path d="m224.658 155.782c-1.304 0-2.36-1.057-2.36-2.36v-7.148c0-1.304 1.057-2.36 2.36-2.36 1.304 0 2.36 1.057 2.36 2.36v7.148c0 1.303-1.056 2.36-2.36 2.36z" fill="#fff"/></g></g><g><g><path d="m276.827 155.782c-1.304 0-2.36-1.057-2.36-2.36v-7.148c0-1.304 1.057-2.36 2.36-2.36 1.304 0 2.36 1.057 2.36 2.36v7.148c0 1.303-1.057 2.36-2.36 2.36z" fill="#fff"/></g></g><g><g><path d="m232.275 217.381c4.731 7.892 13.366 13.177 23.237 13.177 4.276 0 8.319-.995 11.914-2.76-1.546-9.696-9.944-17.108-20.076-17.108-5.979 0-11.355 2.582-15.075 6.691z" fill="#f5415f"/></g></g><g><g><path d="m267.89 210.69h-25.516c-2.543 0-4.605-2.062-4.605-4.605v-2.604h34.726v2.604c0 2.543-2.062 4.605-4.605 4.605z" fill="#fff"/></g></g></g><g><path d="m193.281 361.828h191.846v114.899h-191.846z" fill="#ecd833"/></g><g><path d="m393.18 427.775c0-4.118-2.651-7.608-6.335-8.882 3.884-1.342 6.619-5.148 6.312-9.555-.347-4.978-4.708-8.73-9.698-8.73h-21.308c-4.828 0-9.362 3.914-9.698 8.731-.137 1.967.331 3.813 1.238 5.375 1.487 2.563 1.542 5.748.036 8.3-.824 1.396-1.297 3.023-1.297 4.762s.473 3.366 1.296 4.762c1.493 2.53 1.493 5.71 0 8.24-.824 1.395-1.296 3.023-1.296 4.762 0 1.821.518 3.521 1.415 4.96 1.432 2.298 1.836 5.161.775 7.652-.4.94-.622 1.974-.622 3.061l.018 4.038c.005 1.06-.854 1.923-1.914 1.923h-131.631c-9.735 0-17.627-7.892-17.627-17.627v-77.273c0-2.643 1.932-5.003 4.563-5.254 3.018-.288 5.557 2.078 5.557 5.036v8.682c0 8.788 7.124 15.913 15.913 15.913h53.084c8.788 0 15.913-7.124 15.913-15.913v-8.682c0-2.795 2.266-5.06 5.06-5.06h82.193v-20.792h-182.282v-29.334h-59.506c-9.735 0-17.627 7.892-17.627 17.627v159.393c0 9.735 7.892 17.627 17.627 17.627h224.162c9.735 0 17.627-7.892 17.627-17.627v-24.967c3.683-.641 6.485-3.846 6.485-7.712 0-3.043-1.738-5.675-4.272-6.973 3.425-1.405 5.839-4.769 5.839-8.7 0-4.118-2.651-7.608-6.335-8.882 3.685-1.273 6.335-4.764 6.335-8.881z" fill="#ecc32e"/></g><g><path d="m281.924 385.28h-53.009c-8.809 0-15.95-7.141-15.95-15.95v-6.788h84.909v6.788c0 8.809-7.141 15.95-15.95 15.95z" fill="#f5415f"/></g><g><path d="m381.106 306.964h-191.279v39.238h201.311v-29.206c0-5.541-4.492-10.032-10.032-10.032z" fill="#f6e738"/></g><g><path d="m203.541 306.964h-73.314c-6.2 0-11.226 5.026-11.226 11.226v28.012h73.314v-28.012c0-6.2 5.026-11.226 11.226-11.226z" fill="#ecd833"/></g><g><g><path d="m404.613 461.211c0 4.328-3.508 7.837-7.837 7.837h-21.943c-4.329 0-7.837-3.509-7.837-7.837s3.508-7.837 7.837-7.837h21.943c4.329.001 7.837 3.509 7.837 7.837z" fill="#ffbe82"/></g></g><g><g><path d="m406.18 445.538c0 5.194-4.21 9.404-9.404 9.404h-21.943c-5.194 0-9.404-4.21-9.404-9.404s4.21-9.404 9.404-9.404h21.943c5.194 0 9.404 4.21 9.404 9.404z" fill="#ffbe82"/></g></g><g><g><path d="m406.18 427.775c0 5.194-4.21 9.404-9.404 9.404h-21.943c-5.194 0-9.404-4.21-9.404-9.404s4.21-9.404 9.404-9.404h21.943c5.194-.001 9.404 4.21 9.404 9.404z" fill="#ffbe82"/></g></g><g><g><path d="m406.18 410.011c0 5.194-4.21 9.404-9.404 9.404h-21.943c-5.194 0-9.404-4.21-9.404-9.404s4.21-9.404 9.404-9.404h21.943c5.194 0 9.404 4.21 9.404 9.404z" fill="#ffbe82"/></g></g><g><path d="m159.088 432.948c0-2.678-1.121-5.091-2.919-6.801-1.2-1.142-1.189-3.027.009-4.171 1.941-1.852 3.091-4.525 2.886-7.465-.347-4.978-4.707-8.731-9.697-8.731h-21.309c-4.99 0-9.351 3.753-9.697 8.731-.307 4.407 2.428 8.213 6.312 9.555-3.685 1.273-6.335 4.764-6.335 8.882s2.651 7.608 6.335 8.882c-3.685 1.273-6.335 4.764-6.335 8.882 0 3.931 2.414 7.295 5.84 8.7-2.708 1.387-4.506 4.296-4.248 7.603.322 4.123 3.96 7.207 8.096 7.207h21.374c4.136 0 7.773-3.083 8.096-7.206.167-2.131-.521-4.098-1.756-5.598-.922-1.12-.763-2.804.306-3.785 1.87-1.718 3.042-4.182 3.042-6.921 0-2.678-1.121-5.091-2.919-6.801-1.196-1.138-1.196-3.023 0-4.161 1.797-1.711 2.919-4.124 2.919-6.802z" fill="#dab72b"/></g><g><g><path d="m144.52 466.384c0 4.328-3.508 7.837-7.837 7.837h-21.943c-4.329 0-7.837-3.509-7.837-7.837s3.508-7.837 7.837-7.837h21.943c4.329.001 7.837 3.509 7.837 7.837z" fill="#ffbe82"/></g></g><g><g><path d="m146.088 450.711c0 5.194-4.21 9.404-9.404 9.404h-21.943c-5.194 0-9.404-4.21-9.404-9.404s4.21-9.404 9.404-9.404h21.943c5.193 0 9.404 4.21 9.404 9.404z" fill="#ffbe82"/></g></g><g><g><path d="m146.088 432.948c0 5.194-4.21 9.404-9.404 9.404h-21.943c-5.194 0-9.404-4.21-9.404-9.404s4.21-9.404 9.404-9.404h21.943c5.193 0 9.404 4.21 9.404 9.404z" fill="#ffbe82"/></g></g><g><g><path d="m146.088 415.184c0 5.194-4.21 9.404-9.404 9.404h-21.943c-5.194 0-9.404-4.21-9.404-9.404s4.21-9.404 9.404-9.404h21.943c5.193 0 9.404 4.211 9.404 9.404z" fill="#ffbe82"/></g></g></g></g></svg>