<svg xmlns="http://www.w3.org/2000/svg" viewBox="0 0 400 300"><g id="_506_target_outline" data-name="#506_target_outline"><rect x="184.93" y="130.9" width="24.79" height="29.9" fill="#68e1fd"/><path d="M209.72,161.8H184.93a1,1,0,0,1-1-1V130.9a1,1,0,0,1,1-1h24.79a1,1,0,0,1,1,1v29.9A1,1,0,0,1,209.72,161.8Zm-23.79-2h22.79V131.9H185.93Z" fill="#093f68"/><path d="M185.27,145.85h27.27a48.93,48.93,0,0,1,48.93,48.93v47.47a0,0,0,0,1,0,0H136.35a0,0,0,0,1,0,0V194.78A48.93,48.93,0,0,1,185.27,145.85Z" fill="#68e1fd"/><path d="M261.47,243.25H136.35a1,1,0,0,1-1-1V194.78a50,50,0,0,1,49.92-49.93h27.27a50,50,0,0,1,49.93,49.93v47.47A1,1,0,0,1,261.47,243.25Zm-124.12-2H260.47V194.78a48,48,0,0,0-47.93-47.93H185.27a48,48,0,0,0-47.92,47.93Z" fill="#093f68"/><rect x="160.05" y="55.75" width="74.56" height="85.3" rx="37.28" fill="#68e1fd"/><path d="M197.33,142.05a38.32,38.32,0,0,1-38.28-38.28V93a38.28,38.28,0,0,1,76.56,0v10.74A38.32,38.32,0,0,1,197.33,142.05Zm0-85.3A36.31,36.31,0,0,0,161.05,93v10.74a36.28,36.28,0,0,0,72.56,0V93A36.32,36.32,0,0,0,197.33,56.75Z" fill="#093f68"/><circle cx="198.91" cy="194.05" r="39.54" fill="#fff"/><path d="M198.91,234.59a40.54,40.54,0,1,1,40.54-40.54A40.59,40.59,0,0,1,198.91,234.59Zm0-79.08a38.54,38.54,0,1,0,38.54,38.54A38.59,38.59,0,0,0,198.91,155.51Z" fill="#093f68"/><circle cx="198.91" cy="194.05" r="29.37" fill="#f56132"/><path d="M198.91,224.42a30.37,30.37,0,1,1,30.37-30.37A30.41,30.41,0,0,1,198.91,224.42Zm0-58.74a28.37,28.37,0,1,0,28.37,28.37A28.41,28.41,0,0,0,198.91,165.68Z" fill="#093f68"/><circle cx="198.91" cy="194.05" r="19.75" fill="#fff"/><path d="M198.91,214.8a20.75,20.75,0,1,1,20.74-20.75A20.78,20.78,0,0,1,198.91,214.8Zm0-39.5a18.75,18.75,0,1,0,18.74,18.75A18.77,18.77,0,0,0,198.91,175.3Z" fill="#093f68"/><circle cx="198.91" cy="194.05" r="9.35" fill="#f56132"/><path d="M198.91,204.4a10.35,10.35,0,1,1,10.35-10.35A10.36,10.36,0,0,1,198.91,204.4Zm0-18.7a8.35,8.35,0,1,0,8.35,8.35A8.36,8.36,0,0,0,198.91,185.7Z" fill="#093f68"/><path d="M198.91,195.05a1,1,0,0,1-.73-.31,1,1,0,0,1,0-1.42l56.66-53a1,1,0,1,1,1.37,1.46l-56.66,53A1,1,0,0,1,198.91,195.05Z" fill="#093f68"/><polygon points="236.2 159.16 234.2 147.85 248.99 132.77 250.43 145.85 236.2 159.16" fill="#ffbc0e"/><path d="M236.2,160.17a.91.91,0,0,1-.32-.06,1,1,0,0,1-.66-.77l-2-11.31a1,1,0,0,1,.27-.88l14.79-15.08a1,1,0,0,1,1-.24,1,1,0,0,1,.67.83l1.44,13.08a1,1,0,0,1-.32.84L236.88,159.9A1,1,0,0,1,236.2,160.17Zm-.92-12,1.58,9,12.52-11.71L248.23,135Z" fill="#093f68"/><polygon points="250.43 145.85 263.65 148.68 247.43 162.12 236.2 159.16 250.43 145.85" fill="#ffbc0e"/><path d="M247.43,163.12a1.09,1.09,0,0,1-.25,0l-11.23-3a1,1,0,0,1-.43-1.7l14.23-13.31a1,1,0,0,1,.89-.24l13.22,2.82a1,1,0,0,1,.76.74,1,1,0,0,1-.33,1l-16.22,13.44A1,1,0,0,1,247.43,163.12Zm-9.22-4.46,9,2.36,14.24-11.79-10.7-2.29Z" fill="#093f68"/></g></svg>